<svg width="159" height="38" viewBox="0 0 159 38" fill="none" xmlns="http://www.w3.org/2000/svg">
<path d="M62.256 14.104C63.52 14.104 64.672 14.4 65.712 14.992C66.768 15.568 67.6 16.352 68.208 17.344C68.816 18.336 69.12 19.416 69.12 20.584C69.12 22.184 68.704 23.696 67.872 25.12C67.04 26.528 65.944 27.656 64.584 28.504C63.224 29.368 61.8 29.8 60.312 29.8C59.928 29.8 59.592 29.648 59.304 29.344C59.016 29.04 58.872 28.696 58.872 28.312C58.872 28.008 58.968 27.736 59.16 27.496C59.368 27.256 59.648 27.096 60 27.016C61.952 26.664 63.456 25.912 64.512 24.76C65.584 23.608 66.12 22.216 66.12 20.584C66.12 19.864 65.952 19.208 65.616 18.616C65.296 18.008 64.84 17.536 64.248 17.2C63.656 16.848 62.992 16.672 62.256 16.672C61.408 16.672 60.552 16.8 59.688 17.056L59.76 19.288C60 18.904 60.176 18.576 60.288 18.304C60.384 18.096 60.544 17.928 60.768 17.8C61.008 17.672 61.256 17.608 61.512 17.608C61.896 17.608 62.2 17.736 62.424 17.992C62.648 18.232 62.76 18.552 62.76 18.952C62.76 19.512 62.544 20.144 62.112 20.848C61.68 21.552 61.112 22.24 60.408 22.912C60.584 23.44 60.672 23.816 60.672 24.04C60.672 24.424 60.544 24.752 60.288 25.024C60.032 25.296 59.72 25.432 59.352 25.432C58.664 25.432 58.192 25.216 57.936 24.784C56.752 25.504 55.72 25.864 54.84 25.864C53.912 25.864 53.192 25.552 52.68 24.928C52.168 24.288 51.912 23.384 51.912 22.216C51.912 20.792 52.336 19.48 53.184 18.28C54.048 17.064 55.208 16.088 56.664 15.352L56.736 13.768C56.112 13.736 55.576 13.672 55.128 13.576C54.68 13.464 54.296 13.28 53.976 13.024C53.656 12.8 53.496 12.456 53.496 11.992C53.496 11.656 53.584 11.376 53.76 11.152C54.064 10.784 54.448 10.6 54.912 10.6C55.104 10.6 55.264 10.632 55.392 10.696C55.728 10.84 56.248 10.928 56.952 10.96L57.096 9.784C57.24 8.872 57.752 8.416 58.632 8.416C58.984 8.416 59.28 8.52 59.52 8.728C59.776 8.92 59.904 9.176 59.904 9.496L59.856 10.576C60.256 10.448 60.6 10.304 60.888 10.144C61.08 10.048 61.28 10 61.488 10C61.856 10 62.184 10.128 62.472 10.384C62.776 10.624 62.928 10.92 62.928 11.272C62.928 11.512 62.864 11.744 62.736 11.968C62.608 12.176 62.432 12.352 62.208 12.496C61.568 12.928 60.736 13.256 59.712 13.48C59.712 13.864 59.704 14.152 59.688 14.344C60.472 14.184 61.328 14.104 62.256 14.104ZM57.144 22.072C56.936 20.984 56.8 19.832 56.736 18.616C56.144 19.08 55.68 19.592 55.344 20.152C55.008 20.696 54.84 21.224 54.84 21.736C54.84 22.488 55.056 22.864 55.488 22.864C55.664 22.864 55.896 22.8 56.184 22.672C56.488 22.528 56.808 22.328 57.144 22.072ZM87.672 27.136C87.848 27.488 87.936 27.816 87.936 28.12C87.936 29.192 87.44 29.728 86.448 29.728C85.856 29.728 85.392 29.464 85.056 28.936C84.624 28.264 84.216 27.688 83.832 27.208C83.432 27.88 82.864 28.432 82.128 28.864C81.392 29.296 80.608 29.512 79.776 29.512C79.056 29.512 78.392 29.376 77.784 29.104C77.176 28.832 76.688 28.44 76.32 27.928C75.952 27.4 75.768 26.784 75.768 26.08C75.768 25.504 75.952 24.976 76.32 24.496C76.688 24.016 77.2 23.64 77.856 23.368C78.512 23.096 79.24 22.96 80.04 22.96C80.28 22.96 80.624 22.976 81.072 23.008L80.976 21.448C80.416 21.496 79.896 21.52 79.416 21.52C78.552 21.52 77.792 21.392 77.136 21.136C76.496 20.864 75.984 20.48 75.6 19.984C75.424 19.76 75.336 19.464 75.336 19.096C75.336 18.648 75.488 18.312 75.792 18.088C76.112 17.848 76.472 17.728 76.872 17.728C77.176 17.728 77.52 17.88 77.904 18.184C78.464 18.648 79.12 18.88 79.872 18.88C80.208 18.88 80.528 18.848 80.832 18.784C80.8 17.568 80.784 16.736 80.784 16.288C80.032 16.192 79.384 15.968 78.84 15.616C78.296 15.248 77.872 14.808 77.568 14.296C77.472 14.104 77.424 13.856 77.424 13.552C77.424 13.2 77.52 12.912 77.712 12.688C77.904 12.464 78.168 12.352 78.504 12.352C78.76 12.352 79.008 12.416 79.248 12.544C79.488 12.656 79.68 12.808 79.824 13C80.032 13.304 80.424 13.48 81 13.528C81.064 12.984 81.096 12.312 81.096 11.512C81.096 11 80.896 10.504 80.496 10.024C80.272 9.736 80.16 9.328 80.16 8.8C80.16 8.448 80.288 8.168 80.544 7.96C80.816 7.752 81.144 7.648 81.528 7.648C81.848 7.648 82.136 7.72 82.392 7.864C82.824 8.12 83.176 8.44 83.448 8.824C83.72 9.208 83.856 9.656 83.856 10.168C83.856 11.176 83.816 12.136 83.736 13.048C83.832 13.016 83.936 12.976 84.048 12.928C84.208 12.896 84.336 12.88 84.432 12.88C84.832 12.88 85.176 12.992 85.464 13.216C85.768 13.44 85.92 13.752 85.92 14.152C85.92 14.472 85.84 14.776 85.68 15.064C85.536 15.336 85.304 15.536 84.984 15.664C84.552 15.84 84.072 15.984 83.544 16.096V16.432C83.544 17.024 83.552 17.472 83.568 17.776C83.92 17.616 84.336 17.4 84.816 17.128C85.056 16.984 85.288 16.912 85.512 16.912C85.944 16.912 86.304 17.032 86.592 17.272C86.88 17.496 87.024 17.808 87.024 18.208C87.024 18.48 86.952 18.744 86.808 19C86.68 19.256 86.488 19.456 86.232 19.6C85.432 20.064 84.624 20.456 83.808 20.776L84.144 23.776C85.6 24.464 86.776 25.584 87.672 27.136ZM79.824 26.92C80.192 26.92 80.512 26.8 80.784 26.56C81.056 26.304 81.2 25.936 81.216 25.456C80.816 25.376 80.424 25.336 80.04 25.336C79.688 25.336 79.368 25.424 79.08 25.6C78.792 25.76 78.648 25.944 78.648 26.152C78.648 26.664 79.04 26.92 79.824 26.92ZM106.056 8.128C106.712 8.336 107.24 8.72 107.64 9.28C108.056 9.84 108.36 10.664 108.552 11.752C108.744 12.824 108.84 14.232 108.84 15.976C108.84 19.784 108.384 22.784 107.472 24.976C106.576 27.152 105.152 28.728 103.2 29.704C102.976 29.816 102.776 29.872 102.6 29.872C102.2 29.872 101.856 29.728 101.568 29.44C101.296 29.168 101.16 28.8 101.16 28.336C101.16 28.016 101.232 27.736 101.376 27.496C101.536 27.24 101.744 27.04 102 26.896C103.312 26.192 104.28 24.96 104.904 23.2C105.528 21.424 105.84 19.024 105.84 16C105.84 14.288 105.792 13.064 105.696 12.328C105.6 11.592 105.384 11.088 105.048 10.816C104.84 10.624 104.664 10.384 104.52 10.096C104.376 9.792 104.304 9.496 104.304 9.208C104.304 8.84 104.432 8.56 104.688 8.368C104.944 8.16 105.248 8.056 105.6 8.056C105.744 8.056 105.896 8.08 106.056 8.128ZM102.312 16.168C101.768 17.48 101.496 19.112 101.496 21.064C101.496 21.384 101.368 21.672 101.112 21.928C100.872 22.184 100.592 22.312 100.272 22.312C100.032 22.312 99.792 22.272 99.552 22.192C99.312 22.112 99.112 21.984 98.952 21.808C97.672 20.528 97.032 18.816 97.032 16.672C97.032 16.096 97.104 15.416 97.248 14.632C97.312 14.248 97.344 13.704 97.344 13C97.344 12.792 97.288 12.56 97.176 12.304C97 11.904 96.912 11.536 96.912 11.2C96.912 10.88 97.032 10.6 97.272 10.36C97.528 10.104 97.824 9.976 98.16 9.976C98.576 9.976 98.92 10.112 99.192 10.384C99.464 10.64 99.664 10.936 99.792 11.272C99.92 11.592 99.984 12.04 99.984 12.616C99.984 13.192 99.928 13.84 99.816 14.56C99.72 15.28 99.672 15.952 99.672 16.576C99.672 17.232 99.736 17.864 99.864 18.472C100.024 17.864 100.208 17.288 100.416 16.744C100.624 16.184 100.8 15.792 100.944 15.568C101.056 15.36 101.2 15.2 101.376 15.088C101.568 14.976 101.752 14.92 101.928 14.92C102.088 14.92 102.216 14.976 102.312 15.088C102.408 15.184 102.456 15.312 102.456 15.472C102.456 15.712 102.408 15.944 102.312 16.168ZM130.584 21.184C131.288 22.304 131.64 23.424 131.64 24.544C131.64 25.616 131.392 26.568 130.896 27.4C130.4 28.232 129.72 28.88 128.856 29.344C127.992 29.808 127.024 30.04 125.952 30.04C124.512 30.04 123.416 29.536 122.664 28.528C121.928 27.536 121.544 26.216 121.512 24.568C120.568 24.28 119.792 23.8 119.184 23.128C118.592 22.456 118.296 21.664 118.296 20.752C118.296 20.224 118.408 19.824 118.632 19.552C118.856 19.264 119.168 19.12 119.568 19.12C119.888 19.12 120.128 19.184 120.288 19.312C120.464 19.424 120.6 19.552 120.696 19.696C120.792 19.824 120.88 20 120.96 20.224C121.088 20.704 121.328 21.064 121.68 21.304C121.776 20.168 121.936 18.912 122.16 17.536C121.84 17.504 121.592 17.488 121.416 17.488H120.624C120.256 17.488 119.928 17.376 119.64 17.152C119.368 16.912 119.232 16.576 119.232 16.144C119.232 15.664 119.368 15.296 119.64 15.04C119.928 14.768 120.264 14.632 120.648 14.632C121.432 14.632 122.12 14.664 122.712 14.728C122.952 13.448 123.072 12.592 123.072 12.16C123.072 11.568 122.832 11.168 122.352 10.96C121.664 10.624 121.32 10.096 121.32 9.376C121.32 9.008 121.472 8.696 121.776 8.44C122.08 8.184 122.424 8.056 122.808 8.056C123.768 8.056 124.536 8.416 125.112 9.136C125.704 9.84 126 10.744 126 11.848C126 12.552 125.816 13.704 125.448 15.304C126.168 15.576 126.712 15.952 127.08 16.432C127.32 16.768 127.44 17.144 127.44 17.56C127.44 18.104 127.28 18.504 126.96 18.76C126.752 18.936 126.432 19.024 126 19.024C125.808 19.024 125.64 18.984 125.496 18.904C125.368 18.824 125.184 18.664 124.944 18.424L124.752 18.28C124.576 19.272 124.448 20.328 124.368 21.448L124.896 21.28C125.072 21.216 125.248 21.184 125.424 21.184C125.84 21.184 126.192 21.296 126.48 21.52C126.768 21.728 126.912 22.04 126.912 22.456C126.912 22.792 126.824 23.096 126.648 23.368C126.472 23.624 126.256 23.816 126 23.944C125.248 24.344 124.664 24.6 124.248 24.712V24.76C124.248 25.448 124.408 26.016 124.728 26.464C125.064 26.896 125.496 27.112 126.024 27.112C126.808 27.112 127.44 26.904 127.92 26.488C128.4 26.056 128.64 25.472 128.64 24.736C128.64 24.448 128.584 24.144 128.472 23.824C128.36 23.504 128.192 23.12 127.968 22.672C127.824 22.432 127.752 22.104 127.752 21.688C127.752 21.288 127.888 20.968 128.16 20.728C128.448 20.472 128.784 20.344 129.168 20.344C129.744 20.344 130.216 20.624 130.584 21.184ZM146.256 27.712C145.824 27.712 145.448 27.56 145.128 27.256C144.824 26.936 144.672 26.576 144.672 26.176C144.672 25.232 145.16 24.712 146.136 24.616C148.024 24.424 149.504 23.84 150.576 22.864C151.648 21.888 152.184 20.624 152.184 19.072C152.184 17.904 151.968 16.864 151.536 15.952C151.104 15.04 150.488 14.336 149.688 13.84C148.904 13.328 147.992 13.072 146.952 13.072C145.512 13.072 144.256 13.336 143.184 13.864C142.112 14.376 141.288 15.112 140.712 16.072C140.136 17.016 139.848 18.128 139.848 19.408C139.848 20.304 139.944 20.976 140.136 21.424C140.328 21.856 140.56 22.072 140.832 22.072C141.328 22.072 141.84 21.736 142.368 21.064C142.912 20.392 143.392 19.536 143.808 18.496C144.224 17.456 144.504 16.416 144.648 15.376C144.712 14.96 144.912 14.624 145.248 14.368C145.6 14.112 145.984 13.984 146.4 13.984C146.736 13.984 147.056 14.112 147.36 14.368C147.664 14.624 147.816 14.928 147.816 15.28C147.816 15.664 147.76 16.056 147.648 16.456C147.024 18.888 146.04 20.936 144.696 22.6C143.368 24.264 141.68 25.096 139.632 25.096C138.768 25.096 138.104 24.584 137.64 23.56C137.176 22.52 136.944 21.144 136.944 19.432C136.944 17.784 137.368 16.28 138.216 14.92C139.064 13.544 140.248 12.456 141.768 11.656C143.304 10.856 145.048 10.456 147 10.456C148.488 10.456 149.856 10.808 151.104 11.512C152.368 12.216 153.368 13.224 154.104 14.536C154.84 15.848 155.208 17.384 155.208 19.144C155.208 20.632 154.848 22.032 154.128 23.344C153.408 24.656 152.368 25.712 151.008 26.512C149.648 27.312 148.064 27.712 146.256 27.712Z" fill="#EE8189"/>
<rect y="1" width="36.924" height="36.924" rx="6.27351" fill="#F7DEDC"/>
<rect x="6.56445" y="7.5643" width="23.7954" height="17.6415" rx="1.2308" fill="#DE616A"/>
<path d="M13.339 27.8658L12.2253 26.434C12.0698 26.2341 11.8308 26.1172 11.5776 26.1172H7.40647C6.9533 26.1172 6.58594 26.4846 6.58594 26.9378V30.5175C6.58594 30.9707 6.9533 31.3381 7.40647 31.3381H29.4601C29.9133 31.3381 30.2806 30.9707 30.2806 30.5175V26.9378C30.2806 26.4846 29.9133 26.1172 29.4601 26.1172H25.2021C24.9332 26.1172 24.6814 26.2489 24.5281 26.4697L23.5834 27.8301C23.43 28.0509 23.1783 28.1826 22.9094 28.1826H13.9866C13.7334 28.1826 13.4944 28.0657 13.339 27.8658Z" fill="#DE616A"/>
<rect x="9.43652" y="10.8464" width="2.05133" height="10.2567" rx="0.410266" fill="#F7DEDC"/>
</svg>
