<svg width="58" height="58" viewBox="0 0 58 58" fill="none" xmlns="http://www.w3.org/2000/svg">
<rect width="58" height="43" rx="3" fill="#DE616A"/>
<path d="M16.5129 49.4838L13.7985 45.9938C13.4195 45.5066 12.8369 45.2217 12.2198 45.2217H2.05286C0.948287 45.2217 0.0528564 46.1171 0.0528564 47.2217V55.9472C0.0528564 57.0518 0.948287 57.9472 2.05286 57.9472H55.8072C56.9118 57.9472 57.8072 57.0518 57.8072 55.9472V47.2217C57.8072 46.1171 56.9118 45.2217 55.8072 45.2217H45.4286C44.7733 45.2217 44.1596 45.5427 43.7858 46.0809L41.4831 49.3968C41.1094 49.935 40.4957 50.256 39.8404 50.256H18.0916C17.4745 50.256 16.8918 49.971 16.5129 49.4838Z" fill="#DE616A"/>
<rect x="7" y="8" width="5" height="25" rx="1" fill="#F7DEDC"/>
</svg>
