<svg width="37" height="37" viewBox="0 0 37 37" fill="none" xmlns="http://www.w3.org/2000/svg">
<rect width="36.924" height="36.924" rx="6.27351" fill="#F7DEDC"/>
<rect x="6.56445" y="6.56445" width="23.7954" height="17.6415" rx="1.2308" fill="#DE616A"/>
<path d="M13.339 26.8658L12.2253 25.434C12.0698 25.2341 11.8308 25.1172 11.5776 25.1172H7.40647C6.9533 25.1172 6.58594 25.4846 6.58594 25.9377V29.5175C6.58594 29.9707 6.9533 30.338 7.40647 30.338H29.4601C29.9133 30.338 30.2806 29.9707 30.2806 29.5175V25.9377C30.2806 25.4846 29.9133 25.1172 29.4601 25.1172H25.2021C24.9332 25.1172 24.6814 25.2489 24.5281 25.4697L23.5834 26.8301C23.43 27.0509 23.1783 27.1826 22.9094 27.1826H13.9866C13.7334 27.1826 13.4944 27.0657 13.339 26.8658Z" fill="#DE616A"/>
<rect x="9.43652" y="9.84668" width="2.05133" height="10.2567" rx="0.410266" fill="#F7DEDC"/>
</svg>
